<svg xmlns="http://www.w3.org/2000/svg" xmlns:xlink="http://www.w3.org/1999/xlink" viewBox="0 0 80 80"><path fill="#c7c0e2" d="M35,77.5l-2.3-9.1l-0.3-0.1c-5-1.3-9.6-4-13.2-7.6L19,60.5l-9,2.6l-5-8.7l6.7-6.5l-0.1-0.3 c-0.7-2.5-1-5.1-1-7.6s0.3-5,1-7.6l0.1-0.3L5,25.6l5-8.7l9,2.6l0.2-0.2c3.6-3.6,8.2-6.2,13.2-7.6l0.3-0.1L35,2.5H45l2.3,9.1 l0.3,0.1c5,1.3,9.6,4,13.2,7.6l0.2,0.2l9-2.6l5,8.7l-6.7,6.5l0.1,0.3c0.7,2.5,1,5.1,1,7.6c0,2.5-0.3,5-1,7.6l-0.1,0.3l6.7,6.5 l-5,8.7l-9-2.6l-0.2,0.2c-3.6,3.6-8.2,6.2-13.2,7.6l-0.3,0.1L45,77.5H35z M40,24.6c-8.5,0-15.4,6.9-15.4,15.4S31.5,55.4,40,55.4 S55.4,48.5,55.4,40S48.5,24.6,40,24.6z"/><path fill="#8b75a1" d="M44.6,3l2.1,8.4l0.1,0.6l0.6,0.2c4.9,1.3,9.4,3.9,12.9,7.4l0.4,0.4l0.6-0.2l8.3-2.4l4.6,8.1l-6.2,6 L67.7,32l0.2,0.6c0.7,2.5,1,5,1,7.5s-0.3,5-1,7.5L67.7,48l0.4,0.4l6.2,6l-4.6,8.1l-8.3-2.4L60.8,60l-0.4,0.4 c-3.6,3.6-8,6.1-12.9,7.4L46.9,68l-0.1,0.6L44.6,77h-9.3l-2.1-8.4L33.1,68l-0.6-0.2c-4.9-1.3-9.4-3.9-12.9-7.4L19.2,60l-0.6,0.2 l-8.3,2.4l-4.6-8l6.2-6l0.4-0.4l-0.2-0.6c-0.7-2.5-1-5-1-7.5s0.3-5,1-7.5l0.2-0.6l-0.4-0.4l-6.2-6l4.6-8l8.3,2.4l0.6,0.2l0.4-0.4 c3.6-3.6,8-6.1,12.9-7.4l0.6-0.2l0.1-0.6L35.4,3H44.6 M40,55.9c8.8,0,15.9-7.1,15.9-15.9S48.8,24.1,40,24.1S24.1,31.2,24.1,40 S31.2,55.9,40,55.9 M45.4,2H34.6l-2.3,9.2c-5.1,1.4-9.7,4.1-13.4,7.7l-9.1-2.6l-5.4,9.4l6.8,6.6c-0.7,2.5-1,5-1,7.7s0.4,5.3,1,7.7 l-6.8,6.6l5.4,9.4l9.1-2.6c3.6,3.7,8.3,6.3,13.4,7.7l2.3,9.2h10.9l2.3-9.2c5.1-1.4,9.7-4.1,13.4-7.7l9.1,2.6l5.4-9.4l-6.8-6.6 c0.7-2.5,1-5,1-7.7s-0.4-5.3-1-7.7l6.8-6.6l-5.4-9.4l-9.1,2.6c-3.7-3.7-8.3-6.3-13.4-7.7L45.4,2L45.4,2z M40,54.9 c-8.2,0-14.9-6.7-14.9-14.9S31.8,25.1,40,25.1S54.9,31.8,54.9,40S48.2,54.9,40,54.9L40,54.9z"/><path fill="#eeebf7" d="M40,18c-12.1,0-22,9.9-22,22s9.9,22,22,22s22-9.8,22-22S52.2,18,40,18z M40,48c-4.4,0-8-3.6-8-8 s3.6-8,8-8s8,3.6,8,8S44.4,48,40,48z"/><path fill="#8b75a1" d="M40,32c4.4,0,8,3.6,8,8s-3.6,8-8,8s-8-3.6-8-8S35.6,32,40,32 M40,31c-5,0-9,4-9,9s4,9,9,9s9-4,9-9 S45,31,40,31L40,31z"/><path fill="#fff" d="M42.5 46.5H79.5V79.5H42.5z"/><path fill="#788b9c" d="M79,47v32H43V47H79 M80,46H42v34h38V46L80,46z"/><g><path fill="#788b9c" d="M42 46H80V54H42z"/></g><path fill="#5e9c76" d="M59 71.1L52.8 65.2 54.2 63.8 59 68.4 67.8 59.8 69.2 61.2z"/></svg>